<svg id="Layer_1" data-name="Layer 1" xmlns="http://www.w3.org/2000/svg" viewBox="0 0 198.43 198.43"><defs><style>.cls-1{fill:#999;}</style></defs><title>Group Improved</title><path class="cls-1" d="M84.13,113c0-3.39-.54-15.14-1-20.33-1-11.29-3-17.15-7.5-21.38a13.2,13.2,0,0,0-4.32-3c-3.69-1.73-7.62-2.62-13.76-3.13-3.86-.32-19.9-.15-22.51.24-6,.89-9.43,2.54-13,6.2-4.17,4.25-6,9-7,18.76-.28,2.51-1.47,21.59-1.35,21.69,0,2.36,16,10.41,36.45,10.41S87.76,117,87.76,114.6C87.76,114,86.44,114.67,84.13,113Z"/><ellipse class="cls-1" cx="47.94" cy="45.3" rx="19.21" ry="17.29"/><path class="cls-1" d="M189,114.28l0,0c.23-.22-.39-13.14-.94-19.44-1-11.29-3-17.15-7.49-21.38a13.23,13.23,0,0,0-4.32-3c-3.7-1.73-7.62-2.62-13.76-3.13-3.86-.32-19.9-.15-22.5.24-6,.89-9.43,2.54-13,6.2-4.17,4.25-6,9-7,18.77-.17,1.58.18,15-.17,20.79-2.53,1.73,4.13,6.37,4.13,7.1,0,2.36,7.05,2,27.5,2S189,117,189,114.6A.87.87,0,0,0,189,114.28Z"/><ellipse class="cls-1" cx="152.85" cy="47.49" rx="19.21" ry="17.29"/><ellipse cx="100.4" cy="83.66" rx="23.5" ry="21.55"/><path d="M143.56,147.1c-1.27-14.83-3.92-22.53-9.66-28.09a17.07,17.07,0,0,0-5.57-4c-4.76-2.27-9.82-3.44-17.75-4.11-5-.42-25.66-.2-29,.31-7.69,1.16-12.16,3.33-16.79,8.14C59.42,125,57.11,131.25,55.73,144c-.36,3.3-1.89,28.35-1.75,28.5h0s0,.09,0,.14c0,4.58,20.33,8.3,45.4,8.3s45.4-3.71,45.4-8.3c0,0,0,0,0-.05h0C145.08,172.34,144.27,155.37,143.56,147.1Z"/></svg>