<svg height="512pt" viewBox="-27 0 512 512.00002" width="512pt" xmlns="http://www.w3.org/2000/svg"><path id="frisbee" d="m418.496094 65.800781c-2.609375-3.21875-7.332032-3.714843-10.546875-1.105469-3.21875 2.609376-3.714844 7.332032-1.105469 10.550782 52.464844 64.691406 47.546875 157.949218-11.433594 216.933594-15.929687 15.929687-34.535156 28.125-55.304687 36.289062-5.179688-3.625-11.191407-5.769531-17.382813-6.277344 2.722656-9.402344 1.449219-19.714844-3.78125-28.273437 18.171875-5.972657 34.757813-16.140625 48.414063-29.792969 47.835937-47.839844 47.835937-125.679688 0-173.519531-47.84375-47.835938-125.679688-47.835938-173.519531 0-36.839844 36.839843-46.34375 92.234375-24.261719 139.035156l-29.371094 29.371094c-34.207031-58.8125-27.738281-134.660157 16.652344-186.78125 2.683593-3.15625 2.304687-7.886719-.847657-10.574219-3.152343-2.683594-7.886718-2.304688-10.574218.847656-24.90625 29.246094-39.375 65.015625-41.839844 103.441406-1.519531 23.625 1.578125 46.839844 9.035156 68.691407l-18.648437 18.648437c-8.304688 8.304688-12.878907 19.347656-12.878907 31.089844 0 11.746094 4.574219 22.789062 12.878907 31.09375l2.433593 2.433594-94.21875 94.21875c-2.925781 2.929687-2.925781 7.679687 0 10.609375 1.464844 1.460937 3.386719 2.195312 5.304688 2.195312s3.839844-.734375 5.304688-2.195312l88.671874-88.675781c2.28125 7.359374 6.324219 14.105468 11.925782 19.710937l60.652344 60.648437-84.78125 84.78125c-2.929688 2.929688-2.929688 7.679688 0 10.609376 1.460937 1.464843 3.382812 2.195312 5.300781 2.195312s3.839843-.730469 5.304687-2.195312l84.78125-84.78125 4.976563 4.976562c14.613281 14.613281 34.113281 22.230469 53.804687 22.230469 12.941406 0 25.96875-3.292969 37.738282-10.054688 3.59375-2.0625 4.832031-6.648437 2.769531-10.238281-2.0625-3.59375-6.648438-4.832031-10.238281-2.769531-23.816407 13.683593-54.027344 9.660156-73.464844-9.777344l-76.238282-76.234375c-6.242187-6.242188-9.679687-14.542969-9.679687-23.371094s3.4375-17.128906 9.679687-23.367187l85.699219-85.695313c3.828125-3.832031 8.921875-5.941406 14.339844-5.941406s10.511719 2.109375 14.34375 5.941406c7.171875 7.171875 7.921875 18.535156 1.8125 26.574219l-56.496094 56.496094c-2.929687 2.929687-2.929687 7.679687 0 10.605469 1.464844 1.464843 3.382813 2.199218 5.304688 2.199218 1.917969 0 3.835937-.734375 5.300781-2.199218l55.890625-55.886719c7.507813-3.054688 16.207031-1.351563 21.988281 4.429687 7.910156 7.910156 7.910156 20.777344-.046875 28.734375l-58.515625 58.515625c-2.929687 2.929688-2.929687 7.675782 0 10.605469 1.464844 1.464844 3.386719 2.195313 5.304688 2.195313 1.917968 0 3.839844-.730469 5.300781-2.195313l57.449219-57.445313c7.382812-2.78125 15.882812-1 21.507812 4.625 3.828125 3.828126 5.9375 8.921876 5.9375 14.339844 0 5.417969-2.109375 10.511719-5.988281 14.390625-.003906.003907-.003906.007813-.007813.007813l-57.328124 57.328125c-2.929688 2.929687-2.929688 7.679687 0 10.609375 1.464843 1.460937 3.386718 2.195312 5.304687 2.195312s3.839844-.734375 5.304687-2.195312l56.269532-56.273438c7.601562-2.867187 16.261718-.925781 21.90625 5.035156 7.472656 7.898438 7.109375 20.761719-.808594 28.683594l-35.789062 35.785156c-2.929688 2.933594-2.929688 7.679688 0 10.609376 2.929687 2.925781 7.679687 2.925781 10.605468 0l35.789063-35.789063c11.421875-11.421875 13.601562-28.925781 6.320312-42.382813 20.640625-8.859374 39.222657-21.457031 55.304688-37.535156 31.199219-31.203125 49.574219-72.640625 51.734375-116.679687 2.148437-43.722657-11.792969-86.449219-39.25-120.304688zm-305.089844 220.007813c-4.839844 4.839844-8.507812 10.539062-10.886719 16.742187-4.152343-5.132812-6.414062-11.480469-6.414062-18.175781 0-7.738281 3.015625-15.011719 8.488281-20.484375l14.042969-14.046875c3.09375 6.882812 6.632812 13.597656 10.628906 20.109375zm145.238281-53.785156c2.253907-11.25-1.046875-23.316407-9.644531-31.910157-9.867188-9.867187-24.171875-12.65625-36.546875-8.367187-4.871094-22.949219 2.050781-46.761719 18.90625-63.617188 13.152344-13.148437 30.636719-20.394531 49.234375-20.394531 18.601562 0 36.085938 7.242187 49.238281 20.394531 27.148438 27.148438 27.148438 71.324219 0 98.472656-11.648437 11.648438-26.96875 18.738282-43.320312 20.125-1.105469-1.535156-2.328125-3.011718-3.707031-4.390624-6.554688-6.554688-15.269532-10.105469-24.160157-10.3125zm33.941407 29.109374c18.058593-2.574218 34.839843-10.914062 47.851562-23.925781 33-32.996093 33-86.6875 0-119.683593-15.984375-15.984376-37.234375-24.789063-59.839844-24.789063-22.605468 0-43.859375 8.804687-59.84375 24.789063-21.789062 21.785156-29.917968 53.132812-21.671875 82.609374l-18.144531 18.144532c-16.472656-39.976563-7.53125-86.023438 23.507812-117.066406 41.988282-41.984376 110.3125-41.988282 152.300782 0 41.992187 41.992187 41.992187 110.316406 0 152.304687-13.871094 13.871094-31.179688 23.652344-50.105469 28.351563-4.582031-2.65625-9.695313-4.246094-14.925781-4.679688 1.519531-5.21875 1.808594-10.722656.871094-16.054688zm0 0"/><path d="m180.421875 49.570312c59.503906-46.769531 145.050781-45.734374 203.414063 2.460938 1.398437 1.152344 3.089843 1.714844 4.773437 1.714844 2.160156 0 4.304687-.929688 5.785156-2.722656 2.636719-3.195313 2.1875-7.921876-1.007812-10.5625-31.03125-25.625-70.367188-39.988282-110.753907-40.4492192-.667968-.00781255-1.332031-.0117188-2-.0117188-39.625 0-78.433593 13.375-109.480468 37.777344-3.253906 2.558594-3.820313 7.273437-1.261719 10.53125 2.558594 3.257812 7.277344 3.820312 10.53125 1.261718zm0 0"/><path d="m318.34375 157.25c0-16.089844-17.457031-28.6875-39.738281-28.6875-22.285157 0-39.742188 12.597656-39.742188 28.6875 0 16.082031 17.457031 28.683594 39.742188 28.683594 22.28125 0 39.738281-12.601563 39.738281-28.683594zm-39.742188 13.683594c-14.578124 0-24.738281-7.210938-24.738281-13.683594 0-6.476562 10.160157-13.6875 24.738281-13.6875 14.582032 0 24.738282 7.210938 24.738282 13.6875.003906 6.472656-10.15625 13.683594-24.738282 13.683594zm0 0"/><path d="m305.769531 190.664062-14.414062 14.414063c-2.929688 2.929687-2.929688 7.679687 0 10.605469 1.464843 1.464844 3.382812 2.199218 5.300781 2.199218 1.921875 0 3.839844-.734374 5.304688-2.195312l14.417968-14.417969c2.929688-2.929687 2.929688-7.675781 0-10.605469-2.929687-2.925781-7.679687-2.929687-10.609375 0zm0 0"/></svg>