<svg width="525" height="1018" viewBox="0 0 525 1018" fill="none" xmlns="http://www.w3.org/2000/svg">
<ellipse cx="258.75" cy="566.681" rx="250" ry="450" transform="rotate(-179.754 258.75 566.681)" fill="#534741"/>
<path d="M179.767 896.94C234.118 854.236 261.531 806.537 240.998 790.404C220.465 774.27 159.76 795.81 105.41 838.515C51.0595 881.22 23.6456 928.918 44.1789 945.051C64.7122 961.185 125.417 939.645 179.767 896.94Z" fill="#534741"/>
<path d="M349.407 896.586C403.755 939.292 456.584 954.646 467.403 930.879C478.222 907.113 442.935 853.225 388.586 810.518C334.238 767.812 281.409 752.458 270.59 776.225C259.771 799.992 295.058 853.879 349.407 896.586Z" fill="#534741"/>
<path d="M226.846 748.21C233.348 714.531 214.873 686.904 185.582 686.503C156.291 686.101 127.275 713.078 120.773 746.757C114.271 780.436 132.745 808.064 162.036 808.465C191.328 808.866 220.344 781.889 226.846 748.21Z" fill="white"/>
<path d="M422.763 745.174C427.864 711.494 408.15 684.476 378.729 684.827C349.308 685.178 321.322 712.765 316.221 746.446C311.119 780.126 330.834 807.144 360.255 806.793C389.676 806.442 417.661 778.854 422.763 745.174Z" fill="white"/>
<path d="M388.242 761.364C391.271 741.368 381.471 725.305 366.353 725.486C351.235 725.666 336.525 742.022 333.496 762.017C330.467 782.012 340.267 798.076 355.385 797.895C370.503 797.715 385.213 781.359 388.242 761.364Z" fill="black"/>
<path d="M197.153 759.419C200.182 739.423 190.382 723.36 175.264 723.54C160.146 723.721 145.436 740.077 142.407 760.072C139.378 780.067 149.178 796.13 164.296 795.95C179.414 795.77 194.124 779.414 197.153 759.419Z" fill="black"/>
<path d="M237.889 781.16L241.556 782.357C241.554 782.362 241.553 782.368 241.551 782.373L237.889 781.16Z" stroke="white" stroke-width="50"/>
<path d="M425.767 291.94C480.118 249.236 507.531 201.537 486.998 185.404C466.465 169.27 405.76 190.81 351.41 233.515C297.059 276.22 269.646 323.918 290.179 340.051C310.712 356.185 371.417 334.645 425.767 291.94Z" fill="#534741"/>
<path d="M98.4068 319.586C152.755 362.292 205.584 377.646 216.403 353.879C227.222 330.113 191.935 276.225 137.586 233.518C83.2375 190.812 30.4087 175.458 19.5897 199.225C8.77059 222.992 44.0582 276.879 98.4068 319.586Z" fill="#534741"/>
<path d="M125.243 458.452L190.31 589.125L66 590.669L125.243 458.452Z" fill="black"/>
<path d="M386.251 458.436L451.311 582.685L327 584.161L386.251 458.436Z" fill="black"/>
<path d="M241.317 150.398C249.77 137.023 258.341 122.417 252.511 104.955C248.892 94.0947 240.026 83.3586 231.11 73.0276C222.193 62.6966 212.845 52.2101 208.034 41.3291C203.222 30.448 203.609 18.8111 213.049 13.2774C223.938 6.89554 244.498 10.7249 259.159 20.1332C273.82 29.5415 282.723 43.1808 285.498 55.5229C288.272 67.865 285.575 79.2301 281.514 89.8059C277.453 100.382 272.083 110.33 269.334 121.362C267.978 126.823 267.177 132.64 263.3 136.888C259.423 141.135 251.324 143.332 243.181 140.165" fill="#534741"/>
</svg>
