<svg width="575" height="641" viewBox="0 0 575 641" fill="none" xmlns="http://www.w3.org/2000/svg">
<ellipse rx="300.516" ry="284.931" transform="matrix(-0.0022131 0.999998 -0.999965 -0.00834284 285.846 324.013)" fill="#534741"/>
<path d="M521.029 431.645C495.853 369.433 467.733 338.053 458.222 361.557C448.711 385.06 461.409 454.547 486.585 516.758C511.761 578.97 539.881 610.35 549.392 586.846C558.903 563.343 546.205 493.857 521.029 431.645Z" fill="#534741"/>
<path d="M529.327 177.488C554.504 115.278 563.556 54.8073 549.544 42.4233C535.533 30.0392 503.764 70.4313 478.587 132.641C453.41 194.852 444.359 255.322 458.37 267.706C472.381 280.09 504.15 239.698 529.327 177.488Z" fill="#534741"/>
<path d="M69.0549 197.596C95.0427 259.473 123.57 290.482 132.774 266.856C141.977 243.23 128.37 173.916 102.382 112.039C76.3945 50.1614 47.8667 19.1526 38.6636 42.7785C29.4605 66.4045 43.0672 135.718 69.0549 197.596Z" fill="#534741"/>
<path d="M60.1095 482.839C35.7485 545.373 27.4888 605.957 41.661 618.157C55.8332 630.356 87.0706 589.552 111.432 527.018C135.793 464.484 144.052 403.9 129.88 391.7C115.708 379.501 84.4705 420.305 60.1095 482.839Z" fill="#534741"/>
<path d="M375.068 346.341C334.525 338.898 301.266 360.045 300.783 393.573C300.3 427.101 332.776 460.315 373.32 467.757C413.863 475.2 447.122 454.053 447.605 420.525C448.087 386.997 415.612 353.783 375.068 346.341Z" fill="white"/>
<path d="M371.413 122.084C330.868 116.244 298.343 138.811 298.765 172.487C299.188 206.164 332.399 238.198 372.944 244.037C413.489 249.877 446.014 227.31 445.592 193.634C445.169 159.957 411.958 127.923 371.413 122.084Z" fill="white"/>
<path d="M390.903 161.598C366.832 158.131 347.495 169.349 347.712 186.654C347.929 203.958 367.618 220.797 391.689 224.263C415.76 227.73 435.098 216.512 434.881 199.208C434.663 181.903 414.974 165.065 390.903 161.598Z" fill="black"/>
<path d="M388.562 380.328C364.491 376.862 345.153 388.079 345.37 405.384C345.588 422.688 365.277 439.527 389.348 442.994C413.419 446.46 432.756 435.243 432.539 417.938C432.322 400.634 412.632 383.795 388.562 380.328Z" fill="black"/>
<path d="M433.785 330.872C433.795 330.848 433.805 330.825 433.814 330.801L434.125 330.318C434.129 330.32 434.134 330.323 434.139 330.325L433.785 330.872Z" stroke="white" stroke-width="50"/>
<path d="M123.221 462.863L233.654 388.383L234.959 530.675L123.221 462.863Z" fill="black"/>
<path d="M123.207 164.099L228.212 89.6287L229.459 231.921L123.207 164.099Z" fill="black"/>
</svg>
