<svg width="50" height="200" viewBox="0 0 50 200" fill="none" xmlns="http://www.w3.org/2000/svg">
<path d="M42.11 75.2355L42.0972 75.2418C41.3055 75.6288 39.716 76.9425 39.1907 79.2661L39.1889 79.2738L39.1874 79.2815L32.2576 115.143L33.2395 115.332L40.1677 79.4791C40.6007 77.5759 41.871 76.5004 42.4671 76.1761C42.4832 76.177 42.505 76.1792 42.5326 76.1838L42.11 75.2355ZM42.11 75.2355L41.8169 56.1381L41.8167 56.1281L41.817 56.1181C41.8856 53.3394 42.6147 45.3015 44.9757 35.1805C47.3302 25.0876 48.7988 18.9717 49.2391 17.1738L49.2391 17.1737L49.2409 17.1667C49.4302 16.4398 49.5906 15.2053 49.4412 13.9165C49.2917 12.6267 48.8396 11.3402 47.8619 10.4297C47.591 10.1774 47.1061 9.83948 46.6041 9.56726C46.3557 9.43256 46.1151 9.32056 45.9065 9.24508C45.686 9.16524 45.5467 9.14326 45.4836 9.14591L44.9627 9.16779V9.13894M42.11 75.2355L44.9627 9.13894M44.9627 9.13894C44.9312 9.13818 44.8997 9.13741 44.8684 9.13663C44.1864 9.11977 43.5392 9.10377 42.9144 9.30046C42.1887 9.52887 41.47 10.0665 40.9715 11.478L31.9245 51.3883L30.5068 67.7964L29.5105 67.7103L30.9312 51.2681L30.9341 51.234L30.9417 51.2006L40.0026 11.2289L40.0088 11.2015L40.018 11.1749C40.6063 9.48744 41.5429 8.68376 42.6141 8.3466C43.4063 8.09725 44.2643 8.11764 44.9591 8.13661C44.9377 6.66206 44.8068 4.83966 44.2435 3.33616C43.9306 2.50107 43.4953 1.79516 42.8995 1.29941C42.3124 0.810865 41.5385 0.5 40.4902 0.5C38.4454 0.5 37.0154 1.85722 36.0392 3.71946C35.0641 5.57949 34.609 7.83307 34.4941 9.33757L34.4922 9.36239L34.4878 9.38691L26.7831 52.7726V81.786V81.8306L26.7752 81.8745L11.4519 167.062L11.4455 167.097L11.4343 167.131L0.692738 199.5H22.2132C23.2018 199.455 25.5711 198.663 26.6242 195.721C27.7633 192.539 31.8388 181.91 33.7319 176.999L33.7418 176.974L33.7543 176.95C33.9883 176.497 34.4176 175.795 34.9597 175.128C35.4933 174.471 36.1806 173.793 36.9413 173.461C37.4942 173.22 38.0969 172.703 38.6435 172.11C39.1819 171.526 39.6255 170.912 39.8645 170.534L39.87 170.525L39.8758 170.517C40.2885 169.919 41.0061 168.439 41.7229 165.997C42.4361 163.566 43.1409 160.208 43.5441 155.872C44.3526 147.176 44.6232 140.107 44.658 137.646L43.543 120.514L43.5403 120.472L43.5446 120.431L47.298 84.0153C47.3276 83.427 47.2657 82.4085 46.9735 81.3084C46.6791 80.2004 46.1613 79.0475 45.3065 78.165C43.84 76.6511 42.9026 76.2464 42.5337 76.184L44.9627 9.13894Z" fill="#E6CBA4" stroke="#E2B68D"/>
</svg>
