<svg width="135" height="135" viewBox="0 0 135 135" fill="none" xmlns="http://www.w3.org/2000/svg">
<rect width="135" height="135" rx="30" fill="#998C94"/>
<line x1="37.6247" y1="53.6125" x2="66.5168" y2="30.4988" stroke="white" stroke-width="8" stroke-linecap="round" stroke-linejoin="round"/>
<line x1="67.6223" y1="30.3753" x2="96.5143" y2="53.4891" stroke="white" stroke-width="8" stroke-linecap="round" stroke-linejoin="round"/>
<line x1="84" y1="44" x2="84" y2="32" stroke="white" stroke-width="10"/>
<path d="M45 54.6923L67.2529 37L89 54.6923V77.9451C88.1908 81.5846 85.6284 82.8315 84.4483 83H49.046C46.2138 81.7868 45.1686 79.1245 45 77.9451V54.6923Z" fill="white"/>
<path d="M66.9995 58.8004C64.4089 54.1417 56 55.4759 56 61.4753C56 67.4223 65.0781 70.4228 66.9995 74C68.921 70.4228 78 67.4223 78 61.4753C78 55.4816 69.5938 54.136 66.9995 58.8004V58.8004Z" fill="#E0A3A3"/>
<path d="M35.2603 112.559L35.241 113.125L34.7759 113.148L34.3045 113.172V114.289V115.406L34.7759 115.43L35.241 115.453L35.2603 116.012L35.2797 116.578H37.1462H39.0192V117.703V118.828H37.6306H36.242V118.246V117.664H35.2732H34.3045V118.246V118.821L34.7759 118.844L35.241 118.867L35.2603 119.426L35.2797 119.992H37.6306H39.9815L40.0009 119.426L40.0202 118.867L40.4917 118.844L40.9632 118.821L40.9438 117.68L40.9244 116.539L40.4594 116.516L39.9879 116.493V115.957V115.414H38.115H36.242V114.289V113.156L37.1656 113.179L38.0827 113.203L38.1021 113.761L38.1214 114.328H39.0515H39.9879V113.746V113.164H39.5359H39.0838V112.582V112H37.1785H35.2797L35.2603 112.559Z" fill="#ECE4A0"/>
<path d="M41.8609 112.582V113.156L42.8167 113.179L43.7661 113.203L43.7855 116.594L43.7984 119.992H44.7349H45.6714V116.578V113.164H46.6402H47.6089V112.582V112H44.7349H41.8609V112.582Z" fill="#ECE4A0"/>
<path d="M50.3861 112.582V113.164H49.9017H49.4173V113.707V114.25H48.9652H48.5131V117.121V119.992H49.4819H50.4507V118.867V117.742H51.8392H53.2278V118.867V119.992H54.1966H55.1654V117.121V114.25H54.681H54.1966V113.707V113.164H53.7445H53.2989L53.2795 112.597L53.2601 112.039L51.8263 112.016L50.3861 112V112.582ZM52.272 113.723L52.2913 114.289L52.7628 114.312L53.2278 114.336V115.414V116.5H51.8392H50.4507V115.414V114.328H50.9028H51.3549V113.746V113.164H51.807H52.2526L52.272 113.723Z" fill="#ECE4A0"/>
<path d="M56.0695 113.707V115.406L56.541 115.43L57.006 115.453L57.0254 116.012L57.0448 116.578H57.4904H57.9425V118.285V119.992H58.9113H59.8801V118.285V116.578H60.3644H60.8488V115.996V115.414H61.3009H61.753V113.707V112H60.8165H59.8801L59.8671 113.684L59.8478 115.375L58.9307 115.399L58.0071 115.422V113.707V112H57.0383H56.0695V113.707Z" fill="#ECE4A0"/>
<path d="M70.2782 115.996V119.992H71.247H72.2157V118.285V116.578H73.6043H74.9929L75.0058 118.262L75.0252 119.953L75.981 119.977L76.9304 120V115.996V112H75.9617H74.9929V113.707V115.414H73.6043H72.2157V113.707V112H71.247H70.2782V115.996Z" fill="#ECE4A0"/>
<path d="M78.8034 112.582V113.164H78.319H77.8346V115.996V118.828H78.319H78.8034V119.41V119.992H81.193H83.5827V119.41V118.828H84.0671H84.5514V115.996V113.164H84.0671H83.5827V112.582V112H81.193H78.8034V112.582ZM82.6139 115.996V118.828L81.2124 118.813L79.8045 118.79L79.7851 115.973L79.7722 113.164H81.193H82.6139V115.996Z" fill="#ECE4A0"/>
<path d="M85.4556 115.996V119.992H86.4244H87.3932V117.703V115.406L87.8324 115.43L88.2651 115.453L88.2845 116.012L88.3038 116.578H88.7818H89.2661V115.996V115.414H89.7182H90.1703V117.703V119.992H91.1391H92.1079V115.996V112H91.1391H90.1703V112.582V113.164H89.686H89.2016V113.707V114.25H88.7495H88.2974V113.707V113.164H87.8453H87.3932V112.582V112H86.4244H85.4556V115.996Z" fill="#ECE4A0"/>
<path d="M93.0121 115.996V119.992H95.8538H98.6955V119.41V118.828H96.8226H94.9496V117.703V116.578H96.8226H98.6955V115.996V115.414H96.8226H94.9496V114.289V113.164H96.8226H98.6955V112.582V112H95.8538H93.0121V115.996Z" fill="#ECE4A0"/>
<path d="M21 115.996V116.578H23.3896H25.7793V115.996V115.414H23.3896H21V115.996Z" fill="#ECE4A0"/>
<path d="M107.234 115.973L107.253 116.539L109.63 116.563L112 116.578V115.996V115.414H109.61H107.214L107.234 115.973Z" fill="#ECE4A0"/>
<path d="M10.4677 92.952L10.4465 93.9133L9.72678 93.9413L9 93.9693V99.0467V104.133H9.74089H10.4818V105.067V106H13.5865H16.6912V105.067V104.133H17.1851H17.679V105.067V106H18.6316H19.5842V104.74V103.48H18.8785H18.1729V102.827V102.173H18.8785H19.5842V98.0667V93.96H18.8785H18.1729V92.98V92H14.3274H10.4888L10.4677 92.952ZM16.2678 97.0867V99.6533H14.8213H13.3748V100.913V102.173H14.0804H14.786V102.827V103.48H13.5865H12.3869V99V94.52H14.3274H16.2678V97.0867Z" fill="white"/>
<path d="M20.572 98.0667V104.133H21.3129H22.0538V105.067V106H25.8994H29.745V105.067V104.133H30.4506H31.1562V98.0667V92H29.498H27.8398V97.74V103.48H25.8994H23.9589V97.74V92H22.2655H20.572V98.0667Z" fill="white"/>
<path d="M35.0371 92.98V93.96H34.3315H33.6258V94.8933V95.8267H32.8849H32.1441V100.913V106H33.8375H35.531V104.087V102.173H37.4714H39.4118V104.087V106H41.07H42.7282V100.913V95.8267H42.0226H41.317V94.8933V93.96H40.5761H39.8352V92.98V92H37.4361H35.0371V92.98ZM37.9301 95.5V96.48H38.671H39.4118V98.0667V99.6533H37.4714H35.531V98.0667V96.48H36.2366H36.9422V95.5V94.52H37.4361H37.9301V95.5Z" fill="white"/>
<path d="M43.716 99V106H45.4095H47.1029V104.087V102.173H47.5969H48.0908V103.153V104.133H48.7964H49.502V105.067V106H51.9364H54.3707V104.74V103.48H53.6298H52.8889V102.547V101.623L52.1692 101.595L51.4424 101.567L51.4213 100.932L51.4001 100.307H52.8536H54.3001V97.1333V93.96H53.5945H52.8889V92.98V92H48.3025H43.716V99ZM50.9838 96.1533V97.7867H50.2429H49.502V98.72V99.6533H48.3025H47.1029V97.0867V94.52H49.0434H50.9838V96.1533Z" fill="white"/>
<path d="M58.181 92.98V93.96H57.4754H56.7698V94.8933V95.8267H56.0289H55.288V100.913V106H56.9815H58.675V104.087V102.173H60.6154H62.5558V104.087V106H64.2352H65.9075L65.8863 100.913L65.8722 95.8267H65.1666H64.461V94.8933V93.9693L63.7412 93.9413L63.0145 93.9133L62.9933 92.952L62.9721 92H60.5801H58.181V92.98ZM61.074 95.5V96.48H61.8149H62.5558V98.0667V99.6533H60.6154H58.675V98.0667V96.48H59.3806H60.0862V95.5653C60.0862 95.0613 60.1073 94.6133 60.1356 94.5853C60.1567 94.548 60.3825 94.52 60.6295 94.52H61.074V95.5Z" fill="white"/>
<path d="M66.8601 99V106H68.5535H70.247V103.153V100.307H70.7409H71.2348V101.24V102.173H71.9405H72.639L72.6602 103.125L72.6813 104.087L73.4081 104.115L74.1278 104.143V105.067V106H75.8213H77.5148V99V92H75.8213H74.1278V94.8933V97.7867H73.6339H73.14V96.8067V95.8267H72.4344H71.7288V94.8933V93.96H70.9879H70.247V92.98V92H68.5535H66.8601V99Z" fill="white"/>
<path d="M78.4885 93.26L78.4673 94.52L79.9138 94.5387L81.3603 94.5667L81.3815 100.288L81.3956 106H83.0538H84.712V100.26V94.52H86.1585H87.605V93.26V92H83.0609H78.5097L78.4885 93.26Z" fill="white"/>
<path d="M88.5928 99V106H90.2863H91.9798V104.087V102.164L92.4596 102.192L92.9323 102.22L92.9535 103.172L92.9747 104.133H93.6732H94.3788V105.067V106H96.8132H99.2475V104.74V103.48H98.5067H97.7658V102.547V101.613H97.0249H96.284V100.96V100.307H97.7305H99.177V97.1333V93.96H98.4714H97.7658V92.98V92H93.1793H88.5928V99ZM95.8465 96.1253L95.8253 97.74L95.1056 97.768L94.3788 97.796V98.72V99.6533H93.1793H91.9798V97.0867V94.52H93.9202H95.8606L95.8465 96.1253Z" fill="white"/>
<path d="M103.058 92.98V93.96H102.352H101.647V94.8933V95.8267H100.906H100.165V100.913V106H101.858H103.552V104.087V102.173H105.492H107.433V104.087V106H109.091H110.749V100.913V95.8267H110.043H109.338V94.8933V93.96H108.597H107.856V92.98V92H105.457H103.058V92.98ZM105.951 95.5V96.48H106.692H107.433V98.0667V99.6533H105.492H103.552V98.0667V96.48H104.257H104.963V95.5V94.52H105.457H105.951V95.5Z" fill="white"/>
<path d="M111.737 93.26V94.52H113.183H114.63V99V103.48H113.183H111.737V104.74V106H116.323H120.91V104.74V103.48H119.463H118.017V99V94.52H119.463H120.91V93.26V92H116.323H111.737V93.26Z" fill="white"/>
<path d="M121.898 99V106H126.449H131V104.74V103.48H128.107H125.214V97.74V92H123.556H121.898V99Z" fill="white"/>
</svg>
