<svg id="Layer_1" data-name="Layer 1" xmlns="http://www.w3.org/2000/svg" viewBox="0 0 1602.93 980"><defs><style>.cls-1{fill:aqua;}.cls-2{fill:#8cc63f;}.cls-3{fill:#c7b299;}.cls-4,.cls-5{fill:#006837;}.cls-13,.cls-14,.cls-15,.cls-5,.cls-6{stroke:#000;stroke-miterlimit:10;}.cls-6,.cls-7{fill:#39b54a;}.cls-8{fill:#fbb03b;}.cls-9{fill:#0071bc;}.cls-10{fill:#fff;}.cls-11{fill:#754c24;}.cls-12{fill:#009245;}.cls-13{fill:#534741;}.cls-14,.cls-16{fill:#c1272d;}.cls-15{fill:#4d4d4d;}</style></defs><title>park</title><rect class="cls-1" x="0.5" width="1600" height="844"/><path class="cls-2" d="M297,638H0V802.28C48.15,874.92,86.56,888.42,113,887c36.8-2,60.52-33.6,154-72.83,12.7-5.32,23.17-9.32,30-11.85Z" transform="translate(0.5)"/><path class="cls-2" d="M990,785c138.66-2.2,208-3.29,220-24,33.67-58.07-122.44-299.17-337-317C613.82,422.46,416.71,738.94,447,785c8.62,13.11,33.2.53,211,0,20.33-.06,40.67,0,61,0H990Z" transform="translate(0.5)"/><path class="cls-3" d="M1600,844a5734.79,5734.79,0,0,1-831,56A5734.54,5734.54,0,0,1,0,844V980H1600Z" transform="translate(0.5)"/><path class="cls-4" d="M341,1116" transform="translate(0.5)"/><path class="cls-5" d="M1137.5,832.5c125.62-32.66,440.34,2.59,463-63,20.65-59.79-184.75-251.69-423-249-247.55,2.79-451.14,214.74-430,268,13.58,34.2,136.13,43.66,163,42,1.62-.1,11.09-.75,24-1,0,0,22.63-.44,45,1,42.28,2.72,54.82,10.32,84,12C1097.81,844.47,1122.58,836.38,1137.5,832.5Z" transform="translate(0.5)"/><path class="cls-5" d="M731.5,783.5c26.79-.51,61.71,4.52,82,6,24.56,1.79,66.94,4.88,72-6,15.07-32.41-247.5-307.19-475-222-129.58,48.52-183.13,185.89-196,222h286c122.67,0,184,0,216.87.21C724.76,783.65,729.89,783.53,731.5,783.5Z" transform="translate(0.5)"/><path class="cls-6" d="M-33.5,730.5" transform="translate(0.5)"/><rect class="cls-3" x="214.5" y="844" width="409" height="104"/><path class="cls-7" d="M1600,769.5c-948.25-32-1317.14-25-1381.15,0A292.59,292.59,0,0,1,110,791c-44.85.12-82.67-10.56-110.5-21.5v75A5797.47,5797.47,0,0,0,801,900a5796.71,5796.71,0,0,0,799-55.5Z" transform="translate(0.5)"/><ellipse class="cls-8" cx="1400" cy="807.5" rx="200.5" ry="37.5"/><path class="cls-7" d="M675,625" transform="translate(0.5)"/><path class="cls-6" d="M498.5,358.5" transform="translate(0.5)"/><path class="cls-6" d="M-67.5,831.5" transform="translate(0.5)"/><path class="cls-7" d="M624,727" transform="translate(0.5)"/><path class="cls-7" d="M287,493" transform="translate(0.5)"/><ellipse class="cls-9" cx="110" cy="679.5" rx="92.5" ry="32.5"/><path class="cls-7" d="M-76,680" transform="translate(0.5)"/><circle class="cls-10" cx="210" cy="214.5" r="60.5"/><ellipse class="cls-10" cx="264.5" cy="173" rx="69" ry="65"/><ellipse class="cls-10" cx="345.5" cy="221.5" rx="99" ry="60.5"/><ellipse class="cls-10" cx="1243.5" cy="173" rx="69" ry="65"/><ellipse class="cls-10" cx="1160" cy="222" rx="143.5" ry="46"/><ellipse class="cls-10" cx="1293.63" cy="181.94" rx="121.82" ry="65" transform="translate(16.27 453.31) rotate(-20)"/><path class="cls-7" d="M774,420Z" transform="translate(0.5)"/><rect class="cls-11" x="710.5" y="426" width="16" height="54"/><path class="cls-7" d="M736,431c-1.11,1.29-10,11.27-21,10-8.49-1-13.92-8.17-16-11-12-16.35-7.5-38.85-2.13-65.71,2.85-14.29,3.12-9.15,11.4-42,5.05-20,6.81-29.29,9.73-29.29s4.71,8.94,10,30.72c9,37.08,8.46,31,10.32,41.13C744,396.05,747.93,417.21,736,431Z" transform="translate(0.5)"/><path class="cls-12" d="M736,431c-.33.38-.72.8-.72.8-7.42,7.94-18.85,11.29-20.28,9.2-1.31-1.91,7-6.61,14-19a67,67,0,0,0,8-25c1.12-8.63-.06-12.32-4-36-3.3-19.8-6.42-40.92-6-41a25.41,25.41,0,0,1,1,3.72c4.1,18.61,7.65,26.58,10.32,41.13C744,396.05,747.93,417.21,736,431Z" transform="translate(0.5)"/><rect class="cls-11" x="807.5" y="420" width="16" height="54"/><path class="cls-7" d="M836,425c-1.11,1.29-10,11.27-21,10-8.49-1-13.92-8.17-16-11-12-16.35-7.5-38.85-2.13-65.71,2.85-14.29,3.12-9.15,11.4-42,5.05-20,6.81-29.29,9.73-29.29s4.71,8.94,10,30.72c9,37.08,8.46,31,10.32,41.13C844,390.05,847.93,411.21,836,425Z" transform="translate(0.5)"/><path class="cls-12" d="M836,425c-.33.38-.72.8-.72.8-7.42,7.94-18.85,11.29-20.28,9.2-1.31-1.91,7-6.61,14-19a67,67,0,0,0,8-25c1.12-8.63-.06-12.32-4-36-3.3-19.8-6.42-40.92-6-41a25.41,25.41,0,0,1,1,3.72c4.1,18.61,7.65,26.58,10.32,41.13C844,390.05,847.93,411.21,836,425Z" transform="translate(0.5)"/><polyline class="cls-11" points="1144.5 547 1144.5 493 1160.5 493 1160.5 547"/><path class="cls-7" d="M1155,360c2.87,0,4.71,8.94,10,30.72,9,37.08,8.46,31,10.32,41.13,5.73,31.2,9.62,52.36-2.31,66.15-1.11,1.29-10,11.27-21,10" transform="translate(0.5)"/><path class="cls-7" d="M1152,508c-8.49-1-13.92-8.17-16-11-12-16.35-7.5-38.85-2.13-65.71,2.85-14.29,3.12-9.15,11.4-42,5-20,6.81-29.29,9.73-29.29" transform="translate(0.5)"/><path class="cls-12" d="M1152,508c-1.31-1.91,7-6.61,14-19a67,67,0,0,0,8-25c1.12-8.63-.06-12.32-4-36-3.3-19.8-6.42-40.92-6-41a25.41,25.41,0,0,1,1,3.72c4.1,18.61,7.65,26.58,10.32,41.13,5.73,31.2,9.62,52.36-2.31,66.15-.33.38-.72.8-.72.8-7.42,7.94-18.85,11.29-20.28,9.2" transform="translate(0.5)"/><polyline class="cls-11" points="1254.5 547 1254.5 493 1270.5 493 1270.5 547"/><path class="cls-12" d="M1262,360c2.87,0,4.71,8.94,10,30.72,9,37.08,8.46,31,10.32,41.13,5.73,31.2,9.62,52.36-2.31,66.15-1.11,1.29-10,11.27-21,10" transform="translate(0.5)"/><path class="cls-12" d="M1259,508c-8.49-1-13.92-8.17-16-11-12-16.35-7.5-38.85-2.13-65.71,2.85-14.29,3.12-9.15,11.4-42,5-20,6.81-29.29,9.73-29.29" transform="translate(0.5)"/><path class="cls-7" d="M1259,508c-1.31-1.91,7-6.61,14-19a67,67,0,0,0,8-25c1.12-8.63-.06-12.32-4-36-3.3-19.8-6.42-40.92-6-41a25.41,25.41,0,0,1,1,3.72c4.1,18.61,7.65,26.58,10.32,41.13,5.73,31.2,9.62,52.36-2.31,66.15-.33.38-.72.8-.72.8-7.42,7.94-18.85,11.29-20.28,9.2" transform="translate(0.5)"/><rect class="cls-11" x="454.5" y="514" width="16" height="54"/><path class="cls-12" d="M480,519c-1.11,1.29-10,11.27-21,10-8.49-1-13.92-8.17-16-11-12-16.35-7.5-38.85-2.13-65.71,2.85-14.29,3.12-9.15,11.4-42,5.05-20,6.81-29.29,9.73-29.29s4.71,8.94,10,30.72c9,37.08,8.46,31,10.32,41.13C488,484.05,491.93,505.21,480,519Z" transform="translate(0.5)"/><path class="cls-7" d="M480,519c-.33.38-.72.8-.72.8-7.42,7.94-18.85,11.29-20.28,9.2-1.31-1.91,7-6.61,14-19a67,67,0,0,0,8-25c1.12-8.63-.06-12.32-4-36-3.3-19.8-6.42-40.92-6-41a25.41,25.41,0,0,1,1,3.72c4.1,18.61,7.65,26.58,10.32,41.13C488,484.05,491.93,505.21,480,519Z" transform="translate(0.5)"/><rect class="cls-11" x="615.5" y="597" width="16" height="54"/><path class="cls-7" d="M644,602c-1.11,1.29-10,11.27-21,10-8.49-1-13.92-8.17-16-11-12-16.35-7.5-38.85-2.13-65.71,2.85-14.29,3.12-9.15,11.4-42,5.05-20,6.81-29.29,9.73-29.29s4.71,8.94,10,30.72c9,37.08,8.46,31,10.32,41.13C652,567.05,655.93,588.21,644,602Z" transform="translate(0.5)"/><path class="cls-12" d="M644,602c-.33.38-.72.8-.72.8-7.42,7.94-18.85,11.29-20.28,9.2-1.31-1.91,7-6.61,14-19a67,67,0,0,0,8-25c1.12-8.63-.06-12.32-4-36-3.3-19.8-6.42-40.92-6-41a25.41,25.41,0,0,1,1,3.72c4.1,18.61,7.65,26.58,10.32,41.13C652,567.05,655.93,588.21,644,602Z" transform="translate(0.5)"/><rect class="cls-11" x="773.5" y="508" width="16" height="54"/><path class="cls-12" d="M799,513c-1.11,1.29-10,11.27-21,10-8.49-1-13.92-8.17-16-11-12-16.35-7.5-38.85-2.13-65.71,2.85-14.29,3.12-9.15,11.4-42,5.05-20,6.81-29.29,9.73-29.29s4.71,8.94,10,30.72c9,37.08,8.46,31,10.32,41.13C807,478.05,810.93,499.21,799,513Z" transform="translate(0.5)"/><path class="cls-7" d="M799,513c-.33.38-.72.8-.72.8-7.42,7.94-18.85,11.29-20.28,9.2-1.31-1.91,7-6.61,14-19a67,67,0,0,0,8-25c1.12-8.63-.06-12.32-4-36-3.3-19.8-6.42-40.92-6-41a25.41,25.41,0,0,1,1,3.72c4.1,18.61,7.65,26.58,10.32,41.13C807,478.05,810.93,499.21,799,513Z" transform="translate(0.5)"/><rect class="cls-11" x="928.5" y="474" width="16" height="54"/><path class="cls-12" d="M954,479c-1.11,1.29-10,11.27-21,10-8.49-1-13.92-8.17-16-11-12-16.35-7.5-38.85-2.13-65.71,2.85-14.29,3.12-9.15,11.4-42,5.05-20,6.81-29.29,9.73-29.29s4.71,8.94,10,30.72c9,37.08,8.46,31,10.32,41.13C962,444.05,965.93,465.21,954,479Z" transform="translate(0.5)"/><path class="cls-7" d="M954,479c-.33.38-.72.8-.72.8-7.42,7.94-18.85,11.29-20.28,9.2-1.31-1.91,7-6.61,14-19a67,67,0,0,0,8-25c1.12-8.63-.06-12.32-4-36-3.3-19.8-6.42-40.92-6-41a25.41,25.41,0,0,1,1,3.72c4.1,18.61,7.65,26.58,10.32,41.13C962,444.05,965.93,465.21,954,479Z" transform="translate(0.5)"/><rect class="cls-11" x="1339.5" y="520" width="16" height="54"/><path class="cls-7" d="M1368,525c-1.11,1.29-10,11.27-21,10-8.49-1-13.92-8.17-16-11-12-16.35-7.5-38.85-2.13-65.71,2.85-14.29,3.12-9.15,11.4-42,5-20,6.81-29.29,9.73-29.29s4.71,8.94,10,30.72c9,37.08,8.46,31,10.32,41.13C1376,490.05,1379.93,511.21,1368,525Z" transform="translate(0.5)"/><path class="cls-12" d="M1368,525c-.33.38-.72.8-.72.8-7.42,7.94-18.85,11.29-20.28,9.2-1.31-1.91,7-6.61,14-19a67,67,0,0,0,8-25c1.12-8.63-.06-12.32-4-36-3.3-19.8-6.42-40.92-6-41a25.41,25.41,0,0,1,1,3.72c4.1,18.61,7.65,26.58,10.32,41.13C1376,490.05,1379.93,511.21,1368,525Z" transform="translate(0.5)"/><rect class="cls-11" x="1418.5" y="563" width="16" height="54"/><path class="cls-12" d="M1444,568c-1.11,1.29-10,11.27-21,10-8.49-1-13.92-8.17-16-11-12-16.35-7.5-38.85-2.13-65.71,2.85-14.29,3.12-9.15,11.4-42,5-20,6.81-29.29,9.73-29.29s4.71,8.94,10,30.72c9,37.08,8.46,31,10.32,41.13C1452,533.05,1455.93,554.21,1444,568Z" transform="translate(0.5)"/><path class="cls-7" d="M1444,568c-.33.38-.72.8-.72.8-7.42,7.94-18.85,11.29-20.28,9.2-1.31-1.91,7-6.61,14-19a67,67,0,0,0,8-25c1.12-8.63-.06-12.32-4-36-3.3-19.8-6.42-40.92-6-41a25.41,25.41,0,0,1,1,3.72c4.1,18.61,7.65,26.58,10.32,41.13C1452,533.05,1455.93,554.21,1444,568Z" transform="translate(0.5)"/><rect class="cls-13" x="1513.92" y="612.43" width="8.28" height="190.45"/><rect class="cls-13" x="1498.11" y="625.75" width="8.28" height="190.45"/><line class="cls-11" x1="1190.55" y1="855" x2="1178.5" y2="855"/><path class="cls-7" d="M1186.28,708.44" transform="translate(0.5)"/><line class="cls-11" x1="1273.37" y1="855" x2="1261.32" y2="855"/><path class="cls-12" d="M1266.84,708.44" transform="translate(0.5)"/><path class="cls-14" d="M1470.1,661.51,1345.43,803.13a19.41,19.41,0,0,1-28.19,1.28h0a21.39,21.39,0,0,1-1.23-29.35l124.67-141.62a19.4,19.4,0,0,1,28.19-1.28h0A21.37,21.37,0,0,1,1470.1,661.51Z" transform="translate(0.5)"/><path class="cls-15" d="M1462.36,618.35l-146.83,166.8a3.47,3.47,0,0,1-5,.23h0a3.81,3.81,0,0,1-.22-5.22l146.84-166.8a3.45,3.45,0,0,1,5-.23h0A3.79,3.79,0,0,1,1462.36,618.35Z" transform="translate(0.5)"/><rect class="cls-14" x="1254.54" y="768" width="94.87" height="41.54" rx="20.77"/><rect class="cls-14" x="1438.63" y="612.43" width="94.87" height="53.3" rx="26.5"/><rect class="cls-15" x="1498.11" y="672.78" width="24.09" height="7.84"/><rect class="cls-15" x="1498.11" y="689.24" width="24.09" height="7.84"/><rect class="cls-15" x="1498.11" y="704.91" width="24.09" height="7.84"/><rect class="cls-15" x="1498.11" y="720.59" width="24.09" height="7.84"/><rect class="cls-15" x="1498.11" y="735.48" width="24.09" height="7.84"/><rect class="cls-15" x="1498.11" y="748.02" width="24.09" height="7.84"/><rect class="cls-15" x="1498.11" y="763.69" width="24.09" height="7.84"/><rect class="cls-15" x="1498.11" y="780.93" width="24.09" height="7.84"/><rect class="cls-16" x="1438.63" y="649.26" width="24.85" height="16.46"/><rect class="cls-16" x="1330.97" y="767.61" width="14.68" height="12.93"/><ellipse class="cls-16" cx="1331.72" cy="788.77" rx="18.45" ry="19.2"/></svg>