<svg width="50" height="200" viewBox="0 0 50 200" fill="none" xmlns="http://www.w3.org/2000/svg">
<path d="M7.88998 75.2355L7.90279 75.2418C8.69446 75.6288 10.284 76.9425 10.8093 79.2661L10.8111 79.2738L10.8126 79.2815L17.7424 115.143L16.7605 115.332L9.83226 79.4791C9.39927 77.5759 8.12901 76.5004 7.5329 76.1761C7.51678 76.177 7.49505 76.1792 7.46737 76.1838L7.88998 75.2355ZM7.88998 75.2355L8.18313 56.1381L8.18329 56.1281L8.18304 56.1181C8.11444 53.3394 7.38532 45.3015 5.02427 35.1805C2.66977 25.0876 1.20123 18.9717 0.76086 17.1738L0.760911 17.1737L0.759086 17.1667C0.569846 16.4398 0.409418 15.2053 0.558784 13.9165C0.708274 12.6267 1.16036 11.3402 2.13814 10.4297C2.40905 10.1774 2.89392 9.83948 3.39591 9.56726C3.64431 9.43256 3.88487 9.32056 4.09345 9.24508C4.31405 9.16524 4.45331 9.14326 4.51636 9.14591L5.03734 9.16779V9.13894M7.88998 75.2355L5.03734 9.13894M5.03734 9.13894C5.06884 9.13818 5.10027 9.13741 5.13163 9.13663C5.81355 9.11977 6.46078 9.10377 7.08565 9.30046C7.81128 9.52887 8.53005 10.0665 9.02852 11.478L18.0755 51.3883L19.4932 67.7964L20.4895 67.7103L19.0688 51.2681L19.0659 51.234L19.0583 51.2006L9.99745 11.2289L9.99122 11.2015L9.98195 11.1749C9.39371 9.48744 8.45705 8.68376 7.38589 8.3466C6.59374 8.09725 5.73569 8.11764 5.04089 8.13661C5.06233 6.66206 5.1932 4.83966 5.7565 3.33616C6.06938 2.50107 6.50474 1.79516 7.10048 1.29941C7.68758 0.810865 8.46152 0.5 9.50982 0.5C11.5546 0.5 12.9846 1.85722 13.9608 3.71946C14.9359 5.57949 15.391 7.83307 15.5059 9.33757L15.5078 9.36239L15.5122 9.38691L23.2169 52.7726V81.786V81.8306L23.2248 81.8745L38.5481 167.062L38.5545 167.097L38.5657 167.131L49.3073 199.5H27.7868C26.7982 199.455 24.4289 198.663 23.3758 195.721C22.2367 192.539 18.1612 181.91 16.2681 176.999L16.2582 176.974L16.2457 176.95C16.0117 176.497 15.5824 175.795 15.0403 175.128C14.5067 174.471 13.8194 173.793 13.0587 173.461C12.5058 173.22 11.9031 172.703 11.3565 172.11C10.8181 171.526 10.3745 170.912 10.1355 170.534L10.13 170.525L10.1242 170.517C9.71151 169.919 8.99392 168.439 8.27713 165.997C7.56386 163.566 6.85909 160.208 6.4559 155.872C5.64736 147.176 5.37681 140.107 5.342 137.646L6.45699 120.514L6.45972 120.472L6.45541 120.431L2.70199 84.0153C2.67236 83.427 2.73428 82.4085 3.02651 81.3084C3.32086 80.2004 3.8387 79.0475 4.69353 78.165C6.15997 76.6511 7.09743 76.2464 7.46626 76.184L5.03734 9.13894Z" fill="#E6CBA4" stroke="#E2B68D"/>
</svg>
