<svg id="Layer_1" width="278" height="358" data-name="Layer 1" xmlns="http://www.w3.org/2000/svg" viewBox="0 0 438.37 269"><defs><style>.cls-1{fill:#534741;}.cls-2{fill:#fff;}.cls-3{fill:none;stroke:#000;stroke-miterlimit:10;}</style></defs><title>rockcat</title><ellipse class="cls-1" cx="177.75" cy="220.5" rx="175.5" ry="48"/><path d="M582,373c46.92,0,91,5,124.19,14.17,32.29,8.9,50.81,21.05,50.81,33.33s-18.52,24.43-50.81,33.33C673,463,628.92,468,582,468s-91-5-124.19-14.17C425.52,444.93,407,432.78,407,420.5s18.52-24.43,50.81-33.33C491,378,535.08,373,582,373m0-1c-97.2,0-176,21.71-176,48.5S484.8,469,582,469s176-21.71,176-48.5S679.2,372,582,372Z" transform="translate(-404.25 -200)"/><polygon class="cls-1" points="102.75 0 8.75 211 196.75 211 102.75 0"/><ellipse class="cls-1" cx="482.3" cy="357.22" rx="103.23" ry="39" transform="translate(-515.58 245.67) rotate(-45)"/><polygon class="cls-1" points="174.75 5 89.75 203.07 259.75 203.07 174.75 5"/><ellipse class="cls-1" cx="675.76" cy="357.09" rx="52.44" ry="105.7" transform="translate(-468.43 348.53) rotate(-42.36)"/><ellipse class="cls-2" cx="482.5" cy="349.5" rx="28.5" ry="19.5" transform="translate(-426.03 466.78) rotate(-68.09)"/><ellipse class="cls-2" cx="528.5" cy="357.5" rx="28.5" ry="19.5" transform="translate(-392.72 531.48) rotate(-69.96)"/><ellipse cx="523.83" cy="363.66" rx="16.92" ry="10.02" transform="translate(-401.58 531.14) rotate(-69.96)"/><path d="M470.22,389.39a105.16,105.16,0,0,0-7,25c-.55,3.71-2.9,11,1.89,12.64,4.57,1.53,12.67-3.49,16.43-5.81A50.58,50.58,0,0,0,495.61,408l-2.8-.76A211.72,211.72,0,0,1,491.29,432a1.51,1.51,0,0,0,2.25,1.3c6.7-4.85,13.72-9.45,20.09-14.74,5.06-4.2,8.91-9.43,8.84-16.23a1.5,1.5,0,0,0-3,0c.09,7.85-6,12.8-11.82,17.05-5.18,3.81-10.41,7.55-15.62,11.32l2.26,1.3a211.72,211.72,0,0,0,1.52-24.78,1.51,1.51,0,0,0-2.79-.76,46.13,46.13,0,0,1-17.87,14.74c-1.55.72-5.92,3.19-7.76,2.82-6.51-1.29,4-29.66,5.72-33.83.74-1.78-2.16-2.56-2.89-.8Z" transform="translate(-404.25 -200)"/><line class="cls-3" x1="90.25" y1="218.5" x2="90.25" y2="211.5"/><polygon points="103.17 20.01 130.75 81 78.2 82.11 103.17 20.01"/><polygon points="174.18 22.07 198.75 83 152.2 83.98 174.18 22.07"/><ellipse cx="479.83" cy="354.66" rx="16.92" ry="10.02" transform="translate(-422.05 483.89) rotate(-69.96)"/><path d="M745,110Z" transform="translate(-404.25 -200)"/><path d="M688.78,318.67c18.82,1.75,39.05,3.2,55.38-6.31,10.16-5.91,17.62-15.45,24.61-24.9s13.94-19.25,23.54-26,22.57-10.1,33.26-5.22c12.33,5.63,18.17,21.2,15,34.38s-13.8,23.65-26,29.43-26,7.43-39.6,7.88-27.15-.21-40.61,1.3c-6.66.75-13.44,2-20,.61s-12.93-6.37-13.43-13.05" transform="translate(-404.25 -200)"/><path class="cls-1" d="M688.78,320.17c21.07,1.94,44.11,3.35,61.82-10.38,18-14,26.15-38.42,46.56-49.65,10.56-5.81,24.57-7.23,34,1.59,7.54,7.09,10.3,18.51,8,28.45-5.69,24.6-33.15,33.89-55.35,35.72-14.53,1.19-29.14.22-43.68,1.27-11.21.8-35.39,6.8-37.69-10.42-.25-1.89-3.25-1.91-3,0,1.35,10.1,11,14.86,20.33,15.17,6.8.22,13.59-1.27,20.36-1.75,8.37-.6,16.77-.53,25.15-.6,24.54-.21,52.82-2.38,69.19-23.31,11.85-15.13,11.94-40.78-6.88-50.76C803.71,242.86,782.08,267,769.47,284c-9.4,12.71-19.15,25.68-34.69,31-14.73,5-30.8,3.59-46,2.19-1.92-.17-1.91,2.83,0,3Z" transform="translate(-404.25 -200)"/><path class="cls-1" d="M697.92,318.32l4-.24c1.63-.1,2.11-2.51.4-2.95l-6-1.52a1.5,1.5,0,0,0-.8,2.89l5.68,1.81.39-2.95-11.27,1.31c-1.9.22-1.92,3.22,0,3l11.27-1.31a1.5,1.5,0,0,0,.4-2.94l-5.67-1.81-.8,2.89,6,1.52.4-2.94-4,.24c-1.91.11-1.93,3.11,0,3Z" transform="translate(-404.25 -200)"/></svg>