<svg width="1019" height="525" viewBox="0 0 1019 525" fill="none" xmlns="http://www.w3.org/2000/svg">
<ellipse cx="567.113" cy="266.181" rx="250" ry="450" transform="rotate(90.2462 567.113 266.181)" fill="#534741"/>
<path d="M897.372 345.164C854.668 290.814 806.97 263.4 790.836 283.933C774.702 304.466 796.242 365.171 838.947 419.522C881.652 473.872 929.35 501.286 945.483 480.752C961.617 460.219 940.077 399.514 897.372 345.164Z" fill="#534741"/>
<path d="M897.018 175.524C939.725 121.176 955.078 68.3469 931.312 57.5278C907.545 46.7087 853.657 81.9964 810.951 136.345C768.244 190.694 752.89 243.522 776.657 254.341C800.424 265.161 854.311 229.873 897.018 175.524Z" fill="#534741"/>
<path d="M748.642 298.086C714.963 291.584 687.336 310.058 686.935 339.349C686.534 368.64 713.511 397.656 747.19 404.158C780.868 410.66 808.496 392.186 808.897 362.895C809.298 333.604 782.321 304.587 748.642 298.086Z" fill="white"/>
<path d="M745.606 102.168C711.926 97.0667 684.908 116.781 685.259 146.202C685.61 175.623 713.197 203.609 746.878 208.71C780.558 213.812 807.576 194.097 807.225 164.676C806.874 135.256 779.286 107.27 745.606 102.168Z" fill="white"/>
<path d="M761.796 136.689C741.801 133.66 725.737 143.46 725.918 158.578C726.098 173.696 742.454 188.406 762.449 191.435C782.444 194.464 798.508 184.664 798.327 169.546C798.147 154.428 781.791 139.718 761.796 136.689Z" fill="black"/>
<path d="M759.851 327.778C739.855 324.749 723.792 334.549 723.973 349.667C724.153 364.785 740.509 379.495 760.504 382.524C780.499 385.553 796.563 375.753 796.382 360.635C796.202 345.517 779.846 330.807 759.851 327.778Z" fill="black"/>
<mask id="path-8-inside-1" fill="white">
<path d="M781.593 287.042C790.724 290.065 800.028 291.682 809.291 291.857C813.29 291.922 821.437 293.736 822.056 287.077C822.609 280.73 815.518 270.869 812.237 266.289C807.367 259.609 801.591 254.068 795.222 249.967L795.068 253.824C803.713 252.368 812.461 251.559 821.265 251.4C821.538 251.349 821.79 251.209 821.996 250.992C822.202 250.776 822.355 250.491 822.44 250.166C822.526 249.841 822.54 249.486 822.481 249.138C822.423 248.789 822.294 248.458 822.108 248.177C815.514 240.145 809.109 231.644 802.131 224.129C796.59 218.16 790.251 213.983 783.168 215.296C782.752 215.368 782.39 215.646 782.161 216.07C781.931 216.495 781.854 217.03 781.944 217.559C782.035 218.087 782.287 218.566 782.645 218.889C783.003 219.212 783.438 219.354 783.853 219.282C792.028 217.754 798.587 224.957 804.353 231.928C809.514 238.126 814.613 244.404 819.739 250.65L820.58 247.414C811.768 247.573 803.014 248.384 794.362 249.842C794.026 249.911 793.725 250.117 793.504 250.429C793.283 250.741 793.155 251.143 793.137 251.574C793.12 252.005 793.214 252.443 793.407 252.824C793.599 253.204 793.879 253.506 794.206 253.685C801.891 258.665 808.592 265.926 813.676 274.783C814.782 276.714 818.358 282.077 818.392 284.588C818.533 293.469 786.514 284.596 781.768 283.059C779.74 282.395 779.588 286.388 781.593 287.042Z"/>
</mask>
<path d="M809.291 291.857L808.348 341.848L808.414 341.849L808.479 341.85L809.291 291.857ZM822.056 287.077L871.842 291.699L871.854 291.56L871.867 291.421L822.056 287.077ZM812.237 266.289L852.883 237.17L852.763 237.002L852.641 236.835L812.237 266.289ZM795.222 249.967L822.29 207.927L748.75 160.578L745.262 247.973L795.222 249.967ZM795.068 253.824L745.108 251.83L742.653 313.353L803.37 303.13L795.068 253.824ZM821.265 251.4L822.167 301.392L826.322 301.317L830.407 300.557L821.265 251.4ZM822.108 248.177L863.759 220.515L862.359 218.407L860.754 216.451L822.108 248.177ZM802.131 224.129L765.483 258.143L765.491 258.152L802.131 224.129ZM783.168 215.296L791.639 264.574L791.961 264.518L792.283 264.458L783.168 215.296ZM783.853 219.282L792.324 268.56L792.683 268.498L793.042 268.431L783.853 219.282ZM804.353 231.928L765.827 263.799L765.877 263.859L765.927 263.919L804.353 231.928ZM819.739 250.65L781.088 282.37L843.419 358.32L868.131 263.226L819.739 250.65ZM820.58 247.414L868.972 259.99L885.541 196.233L819.677 197.422L820.58 247.414ZM794.362 249.842L786.054 200.537L785.137 200.691L784.227 200.88L794.362 249.842ZM794.206 253.685L821.396 211.724L819.857 210.727L818.249 209.845L794.206 253.685ZM813.676 274.783L857.062 249.931L857.051 249.911L857.04 249.892L813.676 274.783ZM818.392 284.588L768.397 285.264L768.398 285.321L768.399 285.377L818.392 284.588ZM781.768 283.059L766.209 330.577L766.287 330.602L766.364 330.627L781.768 283.059ZM765.881 334.51C779.597 339.05 793.874 341.575 808.348 341.848L810.234 241.866C806.182 241.789 801.851 241.08 797.304 239.575L765.881 334.51ZM808.479 341.85C807.487 341.834 806.849 341.777 807.442 341.819C807.614 341.831 808.935 341.93 810.076 341.995C812.275 342.118 817.655 342.387 823.961 341.493C830.055 340.629 841.602 338.079 852.478 328.965C864.82 318.622 870.639 304.656 871.842 291.699L772.27 282.456C773.163 272.828 777.732 261.132 788.248 252.319C797.297 244.736 806.441 242.977 809.921 242.484C811.972 242.193 813.543 242.141 814.37 242.132C814.815 242.127 815.157 242.134 815.366 242.14C815.473 242.143 815.556 242.146 815.609 242.148C815.663 242.151 815.693 242.153 815.695 242.153C815.697 242.153 815.676 242.152 815.627 242.148C815.577 242.145 815.508 242.141 815.407 242.133C814.455 242.067 815.658 242.15 814.483 242.067C813.863 242.023 812.095 241.896 810.103 241.863L808.479 341.85ZM871.867 291.421C872.844 280.213 870.339 270.978 868.585 265.788C866.669 260.12 864.264 255.312 862.364 251.868C858.625 245.09 854.347 239.214 852.883 237.17L771.592 295.409C773.409 297.945 774.317 299.289 774.805 300.174C775.018 300.56 774.487 299.694 773.848 297.803C773.505 296.789 772.989 295.063 772.604 292.751C772.225 290.47 771.872 287.009 772.245 282.733L871.867 291.421ZM852.641 236.835C844.472 225.63 834.296 215.658 822.29 207.927L768.155 292.007C768.885 292.477 770.263 293.588 771.834 295.744L852.641 236.835ZM745.262 247.973L745.108 251.83L845.028 255.818L845.182 251.961L745.262 247.973ZM803.37 303.13C809.558 302.088 815.832 301.506 822.167 301.392L820.362 201.408C809.089 201.612 797.868 202.649 786.767 204.518L803.37 303.13ZM830.407 300.557C841.816 298.435 851.32 292.7 858.199 285.48L785.793 216.505C792.26 209.717 801.259 204.263 812.122 202.243L830.407 300.557ZM858.199 285.48C864.943 278.4 868.856 270.297 870.812 262.823L774.069 237.509C775.854 230.685 779.461 223.152 785.793 216.505L858.199 285.48ZM870.812 262.823C872.774 255.324 872.957 247.831 871.797 240.893L773.166 257.382C772.122 251.141 772.277 244.357 774.069 237.509L870.812 262.823ZM871.797 240.893C870.637 233.954 868.029 226.945 863.759 220.515L780.457 275.84C776.559 269.971 774.209 263.623 773.166 257.382L871.797 240.893ZM860.754 216.451C856.006 210.669 847.103 199.08 838.771 190.107L765.491 258.152C771.114 264.207 775.022 269.622 783.462 279.903L860.754 216.451ZM838.778 190.115C830.722 181.434 807.911 159.856 774.052 166.134L792.283 264.458C782.87 266.204 774.996 263.829 770.365 261.448C766.444 259.432 764.871 257.483 765.483 258.143L838.778 190.115ZM774.697 166.019C756.85 169.087 744.515 180.572 738.18 192.286L826.142 239.855C820.266 250.72 808.655 261.648 791.639 264.574L774.697 166.019ZM738.18 192.286C732.023 203.672 730.903 215.767 732.667 226.029L831.222 209.088C832.804 218.293 831.84 229.318 826.142 239.855L738.18 192.286ZM732.667 226.029C734.432 236.294 739.527 247.32 749.132 255.995L816.159 181.783C825.048 189.812 829.639 199.881 831.222 209.088L732.667 226.029ZM749.132 255.995C759.01 264.916 774.471 271.628 792.324 268.56L775.382 170.005C792.404 167.079 806.997 173.508 816.159 181.783L749.132 255.995ZM793.042 268.431C786.511 269.652 780.259 269.04 775.021 267.432C770.146 265.935 766.922 263.827 765.433 262.734C763.951 261.648 763.325 260.928 763.655 261.274C763.971 261.606 764.567 262.276 765.827 263.799L842.879 200.056C840.164 196.775 833.559 188.688 824.58 182.102C814.741 174.885 797.156 165.929 774.664 170.134L793.042 268.431ZM765.927 263.919C770.941 269.941 775.744 275.858 781.088 282.37L858.389 218.931C853.481 212.951 848.086 206.312 842.779 199.937L765.927 263.919ZM868.131 263.226L868.972 259.99L772.187 234.838L771.346 238.074L868.131 263.226ZM819.677 197.422C808.395 197.626 797.165 198.664 786.054 200.537L802.67 299.146C808.863 298.103 815.142 297.52 821.482 297.406L819.677 197.422ZM784.227 200.88C770.059 203.812 759.327 212.159 752.677 221.565L834.331 279.294C828.122 288.076 817.992 296.01 804.498 298.803L784.227 200.88ZM752.677 221.565C746.189 230.741 743.535 240.759 743.178 249.544L843.096 253.604C842.774 261.527 840.377 270.742 834.331 279.294L752.677 221.565ZM743.178 249.544C742.819 258.389 744.7 267.314 748.798 275.408L838.015 230.239C841.728 237.573 843.42 245.622 843.096 253.604L743.178 249.544ZM748.798 275.408C752.866 283.442 759.761 291.82 770.163 297.525L818.249 209.845C827.998 215.192 834.333 222.965 838.015 230.239L748.798 275.408ZM767.016 295.646C767.291 295.824 768.724 296.907 770.312 299.674L857.04 249.892C848.461 234.946 836.49 221.505 821.396 211.724L767.016 295.646ZM770.29 299.636C770.761 300.458 771.218 301.213 771.428 301.56C771.809 302.189 771.795 302.162 772.076 302.627C772.451 303.248 772.566 303.455 772.566 303.455C772.553 303.433 772.445 303.235 772.277 302.891C772.118 302.567 771.803 301.905 771.426 300.97C771.073 300.096 770.459 298.475 769.883 296.294C769.359 294.31 768.466 290.392 768.397 285.264L868.388 283.911C868.31 278.156 867.298 273.52 866.567 270.755C865.785 267.793 864.877 265.326 864.167 263.566C862.778 260.12 861.269 257.242 860.307 255.481C859.27 253.584 858.281 251.932 857.673 250.926C856.695 249.306 856.957 249.747 857.062 249.931L770.29 299.636ZM768.399 285.377C768.285 278.163 769.86 270.079 774.053 262.308C778.165 254.688 783.67 249.44 788.559 246.049C797.285 239.997 805.28 238.944 807.018 238.72C811.167 238.187 812.726 238.798 809.404 238.295C807.165 237.955 804.336 237.357 801.545 236.665C798.665 235.951 796.95 235.419 797.171 235.491L766.364 330.627C770.553 331.984 782.463 335.354 794.421 337.166C799.679 337.963 809.513 339.223 819.774 337.903C824.569 337.287 835.079 335.482 845.549 328.221C858.823 319.015 868.691 303.097 868.386 283.799L768.399 285.377ZM797.326 235.541C789.844 233.091 780.074 231.821 769.352 234.411C758.501 237.033 749.894 242.842 743.812 249.451C732.73 261.492 730.514 275.096 730.21 282.508C729.733 294.146 734.387 324.232 766.08 334.575L797.105 239.51C811.922 244.346 820.625 254.816 824.897 263.074C829.012 271.026 830.429 279.232 830.126 286.605C829.863 293.02 827.94 305.709 817.394 317.168C811.58 323.486 803.302 329.086 792.839 331.614C782.506 334.111 773.185 332.861 766.209 330.577L797.326 235.541Z" fill="white" mask="url(#path-8-inside-1)"/>
<path d="M292.372 99.1638C249.668 44.8136 201.97 17.3997 185.836 37.933C169.702 58.4663 191.242 119.171 233.947 173.522C276.652 227.872 324.35 255.286 340.483 234.752C356.617 214.219 335.077 153.514 292.372 99.1638Z" fill="#534741"/>
<path d="M320.018 426.524C362.725 372.176 378.078 319.347 354.312 308.528C330.545 297.709 276.657 332.996 233.951 387.345C191.244 441.694 175.89 494.522 199.657 505.341C223.424 516.161 277.311 480.873 320.018 426.524Z" fill="#534741"/>
<path d="M458.884 399.689L589.557 334.621L591.101 458.931L458.884 399.689Z" fill="black"/>
<path d="M458.868 138.68L583.117 73.6206L584.593 197.931L458.868 138.68Z" fill="black"/>
<path d="M150.83 283.614C137.455 275.161 122.849 266.59 105.387 272.42C94.5268 276.04 83.7908 284.905 73.4597 293.821C63.1287 302.738 52.6422 312.086 41.7612 316.897C30.8802 321.709 19.2432 321.322 13.7095 311.882C7.32767 300.993 11.157 280.433 20.5653 265.772C29.9737 251.111 43.613 242.208 55.9551 239.433C68.2971 236.659 79.6622 239.356 90.238 243.417C100.814 247.479 110.762 252.848 121.794 255.597C127.255 256.953 133.072 257.754 137.32 261.631C141.568 265.509 143.765 273.607 140.597 281.75" fill="#534741"/>
</svg>
