<svg width="1600" height="985" viewBox="0 0 1600 985" fill="none" xmlns="http://www.w3.org/2000/svg">
<g clip-path="url(#clip0)">
<rect y="5" width="1600" height="980" fill="#DFECFF"/>
<path d="M30 5V985" stroke="#FFFDED" stroke-width="4"/>
<path d="M170 5V985" stroke="#FFFDED" stroke-width="4"/>
<path d="M310 5V985" stroke="#FFFDED" stroke-width="4"/>
<path d="M450 5V985" stroke="#FFFDED" stroke-width="4"/>
<path d="M590 5V985" stroke="#FFFDED" stroke-width="4"/>
<path d="M730 5V985" stroke="#FFFDED" stroke-width="4"/>
<path d="M870 5V985" stroke="#FFFDED" stroke-width="4"/>
<path d="M1010 5V985" stroke="#FFFDED" stroke-width="4"/>
<path d="M1150 5V985" stroke="#FFFDED" stroke-width="4"/>
<path d="M1290 5V985" stroke="#FFFDED" stroke-width="4"/>
<path d="M1430 5V985" stroke="#FFFDED" stroke-width="4"/>
<path d="M1570 5V985" stroke="#FFFDED" stroke-width="4"/>
<path d="M0 126H1600" stroke="#FFFDED" stroke-width="4"/>
<path d="M0 249.5H1600" stroke="#FFFDED" stroke-width="4"/>
<path d="M0 373H1600" stroke="#FFFDED" stroke-width="4"/>
<path d="M0 496.5H1600" stroke="#FFFDED" stroke-width="4"/>
<path d="M0 620H1600" stroke="#FFFDED" stroke-width="4"/>
<path d="M0 743.5H1600" stroke="#FFFDED" stroke-width="4"/>
<path d="M0 867H1600" stroke="#FFFDED" stroke-width="4"/>
</g>
<path d="M1305 5H294.5C269.3 5 259.667 24.3333 258 34V313C288.667 477.833 443.1 805.4 815.5 797C1187.9 788.6 1321.67 470.833 1342 313V34C1342 10.8 1317.33 5 1305 5Z" fill="white" stroke="#BBBBBB" stroke-width="10"/>
<path d="M1197.55 215H396.046C369.246 215 362.546 234 362.546 243.5C361.379 241.333 359.746 251.4 362.546 309C366.046 381 474.546 703 822.046 701.5C1100.05 700.3 1215.21 439.333 1238.05 309C1238.55 295.667 1239.25 264.3 1238.05 245.5C1236.85 226.7 1210.55 217.333 1197.55 215Z" fill="#F7F7F7" stroke="#C9C9C9" stroke-width="8"/>
<path d="M842.77 66.3559L918.27 178.356C923.27 190.523 930.27 218.156 918.27 231.356C906.27 244.556 879.603 245.856 867.77 244.856L859.27 239.377L842.77 393.356C837.437 403.189 821.17 422.856 798.77 422.856C776.37 422.856 765.77 403.189 763.27 393.356L739.77 162.356C733.437 141.189 726.97 92.3559 751.77 66.3559C776.57 40.3559 822.77 55.5226 842.77 66.3559Z" fill="#C4C4C4"/>
<path d="M739.77 162.356C733.437 141.189 726.97 92.3559 751.77 66.3559C776.57 40.3559 822.77 55.5226 842.77 66.3559L918.27 178.356C923.27 190.523 930.27 218.156 918.27 231.356C906.27 244.556 879.603 245.856 867.77 244.856L859.27 239.377M739.77 162.356L763.27 393.356C765.77 403.189 776.37 422.856 798.77 422.856C821.17 422.856 837.437 403.189 842.77 393.356L859.27 239.377M739.77 162.356L859.27 239.377" stroke="#979797" stroke-width="8"/>
<circle cx="787" cy="106" r="13" fill="#C4C4C4" stroke="#979797" stroke-width="8"/>
<path d="M976.666 71.8121C988.17 61.7096 1004.92 63.0211 1011.85 64.9396L1074.46 166.805C1077.18 175.343 1075.72 191.472 1057.44 200.811C1043.88 203.104 1034.84 198.034 1029.37 192.048C1024.08 197.506 1006.51 206.203 983.163 194.707C959.812 183.21 962.572 157.825 966.871 146.57C961.589 144.135 956.535 140.085 955.61 133.854C954.058 123.408 963.329 114.32 968.158 111.082C966.201 102.201 965.162 81.9146 976.666 71.8121Z" fill="#FFE2E2"/>
<path d="M976.692 149.467C974.118 149.123 970.443 148.216 966.871 146.57M966.871 146.57C961.589 144.135 956.535 140.085 955.61 133.854C954.058 123.408 963.329 114.32 968.158 111.082C966.201 102.201 965.162 81.9146 976.666 71.8121C988.17 61.7096 1004.92 63.0211 1011.85 64.9396L1074.46 166.805C1077.18 175.343 1075.72 191.472 1057.44 200.811C1036.03 204.43 1025.88 189.702 1023.28 181.989M966.871 146.57C962.572 157.825 959.812 183.21 983.163 194.707C1006.51 206.203 1024.08 197.506 1029.37 192.048" stroke="#FFC5C5"/>
<path d="M1098.46 48.5434L1098.47 48.5465L1098.49 48.5494L1139.63 59.057C1148.79 61.7666 1158.52 68.3497 1165.17 77.536C1171.8 86.695 1175.31 98.359 1172.23 111.331C1168.99 124.949 1166.88 133.15 1165.56 137.866C1164.95 140.034 1164.51 141.434 1164.22 142.275L1163.73 143.232C1160.27 149.909 1153.29 159.564 1143.71 166.675C1134.17 173.764 1122.19 178.225 1108.53 174.958C1094.14 171.515 1084.28 169.088 1077.81 167.423C1074.57 166.591 1072.2 165.952 1070.53 165.475C1068.81 164.978 1067.99 164.695 1067.74 164.578L1067.41 164.423L1067.05 164.393C1066.33 164.334 1063.35 163.747 1056.81 162.056C1050.36 160.387 1040.58 157.682 1026.41 153.469C1012.94 149.47 1004.8 139.619 1000.08 128.707C995.342 117.759 994.128 105.91 994.47 98.3974L994.519 97.3206C994.686 96.4465 995.011 95.0173 995.569 92.8354C996.78 88.0899 999.052 79.9311 1003.06 66.5206C1006.86 53.7893 1016.21 45.4347 1026.82 40.8012C1037.48 36.1469 1049.21 35.3463 1057.41 37.5436L1098.46 48.5434Z" fill="#FFC1C1" stroke="#FFE7E7" stroke-width="4"/>
<path d="M1025.5 77.6514C1028.3 67.2194 1044.11 60.3781 1054.51 62.1297L1128.88 82.0588C1138.77 85.7423 1149.04 99.5718 1146.24 110.004L1140.94 129.805C1138.87 137.533 1126.39 151.271 1113.92 149.484C1101.46 147.698 1081.89 140.9 1073.84 138.743C1065.79 136.586 1045.44 132.686 1033.75 128.002C1022.07 123.318 1018.13 105.18 1020.2 97.4529L1025.5 77.6514Z" fill="#FFA2A2" stroke="#FFCECE"/>
<defs>
<clipPath id="clip0">
<rect y="5" width="1600" height="980" fill="white"/>
</clipPath>
</defs>
</svg>
