<svg width="414" height="736" viewBox="0 0 414 736" fill="none" xmlns="http://www.w3.org/2000/svg">
<g clip-path="url(#clip0)">
<rect width="414" height="736" fill="#DFECFF"/>
<path d="M57 0V736" stroke="#FFFDED" stroke-width="4"/>
<path d="M132 0V736" stroke="#FFFDED" stroke-width="4"/>
<path d="M207 0V736" stroke="#FFFDED" stroke-width="4"/>
<path d="M357 0V736" stroke="#FFFDED" stroke-width="4"/>
<path d="M282 0V736" stroke="#FFFDED" stroke-width="4"/>
<path d="M0 121H414" stroke="#FFFDED" stroke-width="4"/>
<path d="M0 244.5H414" stroke="#FFFDED" stroke-width="4"/>
<path d="M0 368H414" stroke="#FFFDED" stroke-width="4"/>
<path d="M0 491.5H414" stroke="#FFFDED" stroke-width="4"/>
<path d="M0 615H414" stroke="#FFFDED" stroke-width="4"/>
<path d="M392.381 7H20.435C11.1593 7 7.61347 14.1162 7 17.6744V120.369C18.2878 181.041 75.1318 301.612 212.205 298.52C349.279 295.428 398.516 178.464 406 120.369V17.6744C406 9.13487 396.921 7 392.381 7Z" fill="white" stroke="#BBBBBB" stroke-width="6"/>
<path d="M352.829 84.2971H57.8121C47.9476 84.2971 45.4814 91.2906 45.4814 94.7874C45.052 93.9899 44.4508 97.6952 45.4814 118.897C46.7697 145.399 86.7065 263.921 214.615 263.369C316.941 262.927 359.332 166.87 367.736 118.897C367.921 113.989 368.178 102.443 367.736 95.5235C367.295 88.6036 357.614 85.1559 352.829 84.2971Z" fill="#F7F7F7" stroke="#C9C9C9" stroke-width="4"/>
<path d="M222.243 29.584L250.033 70.809C251.874 75.2874 254.45 85.4587 250.033 90.3174C245.616 95.176 235.801 95.6545 231.445 95.2864L228.316 93.2699L222.243 149.947C220.28 153.566 214.292 160.805 206.047 160.805C197.802 160.805 193.901 153.566 192.981 149.947L184.331 64.9198C181.999 57.1287 179.619 39.1541 188.748 29.584C197.876 20.0138 214.881 25.5964 222.243 29.584Z" fill="#C4C4C4"/>
<path d="M184.331 64.9198C181.999 57.1287 179.619 39.1541 188.748 29.584C197.876 20.0138 214.881 25.5964 222.243 29.584L250.033 70.809C251.874 75.2874 254.45 85.4587 250.033 90.3174C245.616 95.176 235.801 95.6545 231.445 95.2864L228.316 93.2699M184.331 64.9198L192.981 149.947C193.901 153.566 197.802 160.805 206.047 160.805C214.292 160.805 220.28 153.566 222.243 149.947L228.316 93.2699M184.331 64.9198L228.316 93.2699" stroke="#979797" stroke-width="6"/>
<circle cx="201.715" cy="44.1762" r="4.78506" fill="#C4C4C4" stroke="#979797" stroke-width="8"/>
<path d="M277.04 28.3336C281.373 24.5284 287.681 25.0224 290.293 25.745L313.877 64.114C314.901 67.33 314.349 73.405 307.465 76.9227C302.357 77.7864 298.951 75.8766 296.891 73.6222C294.898 75.6778 288.283 78.9539 279.487 74.6235C270.692 70.293 271.732 60.7315 273.351 56.4921C271.361 55.5752 269.458 54.0497 269.109 51.7024C268.525 47.7678 272.017 44.3448 273.836 43.1251C273.098 39.7801 272.707 32.1388 277.04 28.3336Z" fill="#FFE2E2"/>
<path d="M277.05 57.5833C276.081 57.4538 274.696 57.1121 273.351 56.4921M273.351 56.4921C271.361 55.5752 269.458 54.0497 269.109 51.7024C268.525 47.7678 272.017 44.3448 273.836 43.1251C273.098 39.7801 272.707 32.1388 277.04 28.3336C281.373 24.5284 287.681 25.0224 290.293 25.745L313.877 64.114C314.901 67.33 314.349 73.405 307.465 76.9227C299.402 78.2861 295.578 72.7384 294.599 69.8333M273.351 56.4921C271.732 60.7315 270.692 70.293 279.487 74.6235C288.283 78.9539 294.898 75.6778 296.891 73.6222" stroke="#FFC5C5"/>
<path d="M322.853 19.8073L322.853 19.8074L322.864 19.8103L338.358 23.767C341.752 24.7728 345.372 27.2191 347.843 30.6342C350.305 34.0355 351.603 38.3564 350.461 43.162C349.243 48.2901 348.448 51.3755 347.951 53.1469C347.726 53.9483 347.566 54.4657 347.459 54.7767L347.28 55.1213C345.991 57.6096 343.386 61.2147 339.814 63.867C336.257 66.5079 331.82 68.1536 326.768 66.945C321.346 65.6481 317.633 64.7343 315.199 64.1079C313.981 63.7946 313.089 63.5547 312.465 63.3757C312.153 63.2861 311.914 63.2135 311.739 63.1559C311.651 63.1271 311.583 63.1034 311.532 63.0844C311.506 63.0749 311.487 63.0673 311.472 63.0614L311.456 63.0546C311.452 63.0529 311.451 63.0521 311.451 63.0522L311.287 62.9744L311.105 62.9596C310.86 62.9394 309.759 62.725 307.289 62.0862C304.863 61.4585 301.184 60.4406 295.846 58.8544C290.865 57.3746 287.846 53.7311 286.086 49.6656C284.319 45.5828 283.866 41.1582 283.993 38.3585L284.011 37.9707C284.073 37.6478 284.193 37.1197 284.399 36.3133C284.854 34.5306 285.709 31.4612 287.218 26.411C288.625 21.7005 292.084 18.6022 296.032 16.8789C300.003 15.1452 304.362 14.8527 307.39 15.6641L322.853 19.8073Z" fill="#FFC1C1" stroke="#FFE7E7" stroke-width="2"/>
<path d="M295.435 30.533C296.488 26.6037 302.443 24.0268 306.361 24.6866L334.375 32.1931C338.098 33.5806 341.967 38.7896 340.914 42.719L338.915 50.1775C338.135 53.0881 333.434 58.2626 328.74 57.5898C324.046 56.9169 316.673 54.3564 313.641 53.544C310.609 52.7316 302.944 51.2626 298.542 49.4983C294.141 47.734 292.657 40.9021 293.437 37.9915L295.435 30.533Z" fill="#FFA2A2" stroke="#FFCECE"/>
</g>
<defs>
<clipPath id="clip0">
<rect width="414" height="736" fill="white"/>
</clipPath>
</defs>
</svg>
