<svg width="155" height="124" viewBox="0 0 155 124" fill="none" xmlns="http://www.w3.org/2000/svg">
<g filter="url(#filter0_d)">
<path d="M132.5 64L110.5 71.5L89.5 33L77 23L57.5 17.5L36.5 19.5L18.5 30.5L7 55L12.5 79.5L26 103L72.5 112.5L110.5 100.5L126 112.5L139 98V75L132.5 64Z" fill="#F4A3A3" stroke="#F4A3A3"/>
<path d="M132 16.5L126.5 5.5L118 10L115.5 19.5L126.5 31.5H141L148 26V16.5H132Z" fill="#FF7171" stroke="black"/>
<path d="M120.173 1.53084C117.671 2.47251 115.601 3.41417 115.429 3.60251C111.634 10.7592 111.116 19.2342 113.963 26.2967C118.62 37.785 134.404 42.6817 146.306 36.3725C153.724 32.4175 156.225 23.2833 152.258 14.62C150.878 11.7008 144.409 8.68751 141.649 9.62918C138.371 10.7592 134.835 9.25251 133.973 6.33334C132.248 0.96584 126.814 -0.917494 120.173 1.53084ZM128.108 12.6425C129.229 15.185 130.954 17.9158 131.989 18.9517C133.628 20.5525 133.886 20.6467 135.87 19.14C138.803 17.0683 144.064 17.1625 145.53 19.2342C147.255 21.7767 146.996 25.5434 144.84 27.7092C142.425 30.1575 134.059 31.9467 130.436 30.8167C126.9 29.7809 121.898 25.4492 120.345 22.2475C119.655 20.835 119.138 17.9158 119.138 15.8442C119.138 12.925 119.655 11.795 121.553 10.1942C124.916 7.36918 125.779 7.74584 128.108 12.6425Z" fill="black"/>
<path d="M43.8413 13.0192C35.2163 13.7725 28.92 15.5617 23.4 18.6692C19.7775 20.6467 12.1875 28.2742 12.1875 29.7808C12.1875 31.2875 6.32253 41.3633 4.59753 42.87C3.39003 43.9058 3.04503 46.3542 2.87253 57.1833C2.61378 66.6942 2.78628 70.3667 3.56253 70.3667C4.08003 70.3667 4.25253 70.7433 3.99378 71.3083C3.73503 71.7792 3.82128 72.25 4.25253 72.25C4.59753 72.25 5.63253 74.6983 6.49503 77.6175C10.3763 91.6483 21.2438 105.397 31.5075 109.634C33.405 110.388 35.82 111.329 36.7688 111.8C38.4075 112.459 41.5988 113.495 47.9813 115.284C52.035 116.414 84.5513 116.038 88.5188 114.813C90.4163 114.248 94.7288 113.118 98.0063 112.271C101.37 111.423 105.165 110.105 106.459 109.352C108.788 108.128 111.634 108.693 113.1 110.764C114.48 112.742 120.518 115.567 123.278 115.567C129.833 115.567 132.679 113.966 136.388 108.316C138.285 105.303 140.528 100.877 141.39 98.4283C142.166 95.98 143.115 93.9083 143.46 93.9083C143.891 93.9083 144.15 87.9758 144.15 80.725C144.15 73.4742 143.805 67.5417 143.46 67.5417C143.115 67.5417 142.08 66.2233 141.304 64.7167C139.148 60.8558 135.611 59.0667 130.091 59.0667C125.779 59.0667 115.601 62.08 113.359 63.9633C112.238 64.905 110.599 61.4208 108.356 53.6992C107.753 51.5333 105.683 47.1075 103.699 44C101.715 40.8925 100.163 38.1617 100.163 37.9733C100.163 37.785 97.4025 34.5833 94.125 30.9108C85.0688 20.9292 76.0988 15.4675 64.9725 13.0192C59.8838 11.8892 56.3475 11.8892 43.8413 13.0192ZM69.975 23.0008C73.08 24.4133 76.6163 26.2025 77.9963 27.05C82.2225 29.875 93.2625 41.2692 94.6425 44.2825C95.4188 45.8833 96.7125 47.8608 97.575 48.6142C99.3 50.4033 103.958 62.7392 104.82 67.6358C105.424 71.4967 108.788 76.0167 111.116 76.0167C111.893 76.0167 113.359 74.9808 114.394 73.6625C116.291 71.0258 126.555 66.6942 130.868 66.6C132.334 66.6 133.973 67.165 134.49 67.8242C135.008 68.3892 135.611 73.8508 135.956 79.7833C136.301 85.7158 136.646 90.8008 136.733 91.0833C136.905 91.9308 130.178 104.173 128.625 105.679C127.849 106.433 126.038 107.28 124.571 107.657C122.415 108.128 121.38 107.657 118.793 105.208C117.068 103.513 115.429 101.159 115.17 99.935C114.825 98.6167 113.876 97.2042 112.928 96.6392C111.116 95.6033 108.701 96.8275 104.475 100.971C103.268 102.101 101.198 103.325 99.7313 103.608C98.3513 103.984 92.4 105.303 86.535 106.621C71.7863 109.917 59.7113 109.917 46.515 106.527C32.8013 102.948 25.9875 98.0517 18.4838 86.1867C16.9313 83.7383 15.6375 81.1958 15.6375 80.5367C15.6375 79.8775 14.8613 77.9 13.9125 76.205C12.9638 74.51 12.1875 72.3442 12.1875 71.3083C12.1875 70.3667 11.8425 69.3308 11.4113 68.9542C10.98 68.6717 10.7213 66.9767 10.98 65.1875C11.1525 63.4925 10.98 61.7033 10.4625 61.4208C9.34128 60.6675 9.34128 51.8158 10.5488 51.0625C10.98 50.6858 11.2388 49.7442 11.0663 48.8967C10.8938 47.955 12.1013 45.3183 13.6538 42.9642C15.2063 40.5158 16.5 38.2558 16.5 37.8792C16.5 36.1842 21.1575 30.5342 25.3838 27.1442C30.3863 23.0008 34.6988 21.7767 47.55 20.6467C58.7625 19.705 63.3338 20.1758 69.975 23.0008Z" fill="black"/>
<path d="M34.1813 43.6233C30.3 45.7892 28.3163 49.3675 27.885 55.0175C27.54 58.9725 27.7988 60.4792 29.0063 61.8917C31.8525 65.2817 33.6638 63.8692 34.9575 57.0892C36.0788 51.2508 41.685 48.2375 46.515 50.9683C48.7575 52.1925 49.275 53.1342 49.7063 56.9008C50.4825 64.34 51.2588 66.1292 53.415 66.1292C56.0025 66.1292 58.935 61.3267 57.21 60.1025C56.4338 59.6317 56.0888 57.9367 56.175 55.6767C56.52 50.3092 54.9675 47.2958 50.7413 44.565C46.3425 41.74 38.4938 41.2692 34.1813 43.6233Z" fill="black"/>
</g>
<defs>
<filter id="filter0_d" x="-1.23962" y="0.472992" width="159.37" height="123.487" filterUnits="userSpaceOnUse" color-interpolation-filters="sRGB">
<feFlood flood-opacity="0" result="BackgroundImageFix"/>
<feColorMatrix in="SourceAlpha" type="matrix" values="0 0 0 0 0 0 0 0 0 0 0 0 0 0 0 0 0 0 127 0"/>
<feOffset dy="4"/>
<feGaussianBlur stdDeviation="2"/>
<feColorMatrix type="matrix" values="0 0 0 0 0 0 0 0 0 0 0 0 0 0 0 0 0 0 0.25 0"/>
<feBlend mode="normal" in2="BackgroundImageFix" result="effect1_dropShadow"/>
<feBlend mode="normal" in="SourceGraphic" in2="effect1_dropShadow" result="shape"/>
</filter>
</defs>
</svg>
